<svg width="180" height="60" viewBox="0 0 180 60" fill="none" xmlns="http://www.w3.org/2000/svg">
<path d="M30 0C13.4315 0 0 13.4315 0 30C0 46.5685 13.4315 60 30 60C46.5685 60 60 46.5685 60 30C60 13.4315 46.5685 0 30 0ZM30 55C16.2122 55 5 43.7878 5 30C5 16.2122 16.2122 5 30 5C43.7878 5 55 16.2122 55 30C55 43.7878 43.7878 55 30 55Z" fill="#FFA800"/>
<path d="M30 15L15 30L30 45L45 30L30 15Z" stroke="#FFA800" stroke-width="4"/>
<text x="70" y="42" font-family="Arial, sans-serif" font-size="30" font-weight="bold" fill="white">ЛОГО</text>
</svg>